<svg xmlns="http://www.w3.org/2000/svg" version="1.1" xmlnsXlink="http://www.w3.org/1999/xlink" xmlnssvgjs="http://svgjs.dev/svgjs" width="1920" height="500" preserveAspectRatio="none" viewBox="0 0 1920 500"><g mask="url(&quot;#SvgjsMask1292&quot;)" fill="none"><rect width="1920" height="500" x="0" y="0" fill="#1e3266"></rect><path d="M1952 500L0 500 L0 361.62Q69.17 334.79, 96 403.96Q169.18 317.13, 256 390.31Q327.18 301.49, 416 372.67Q478.95 339.63, 512 402.58Q569.42 300, 672 357.42Q768.5 293.92, 832 390.41Q886 348.41, 928 402.41Q984.73 299.14, 1088 355.87Q1149.99 321.86, 1184 383.85Q1223.85 327.7, 1280 367.54Q1353.74 281.28, 1440 355.03Q1510.88 329.9, 1536 400.78Q1600.95 305.73, 1696 370.67Q1768.43 283.1, 1856 355.53Q1920.71 324.24, 1952 388.95z" fill="#182f5d"></path><path d="M2080 500L0 500 L0 401Q51.27 356.27, 96 407.54Q184.33 335.87, 256 424.2Q311.37 383.56, 352 438.93Q383.21 374.14, 448 405.36Q521.63 318.99, 608 392.61Q701.65 326.26, 768 419.91Q840.05 331.97, 928 404.02Q1021 337.02, 1088 430.02Q1129.16 375.18, 1184 416.34Q1226.31 362.65, 1280 404.96Q1376.17 341.13, 1440 437.31Q1514.86 352.16, 1600 427.02Q1669.88 336.9, 1760 406.78Q1856.17 342.95, 1920 439.12Q1978.76 337.88, 2080 396.65z" fill="#25467d"></path><path d="M2016 500L0 500 L0 445.74Q77.31 363.05, 160 440.35Q217.73 402.08, 256 459.8Q343.94 387.75, 416 475.69Q441.85 405.54, 512 431.4Q601 360.39, 672 449.39Q730.86 412.25, 768 471.1Q842.32 385.42, 928 459.73Q970.25 405.98, 1024 448.22Q1095.11 359.33, 1184 430.44Q1287.47 373.91, 1344 477.38Q1379.74 417.13, 1440 452.87Q1513.13 366, 1600 439.12Q1692.17 371.29, 1760 463.46Q1845.05 388.51, 1920 473.56Q1957.5 415.06, 2016 452.56z" fill="#356cb1"></path><path d="M1984 500L0 500 L0 499.24Q87.44 426.68, 160 514.12Q191.88 450, 256 481.88Q298.59 428.47, 352 471.05Q416.13 439.18, 448 503.3Q517.83 413.13, 608 482.96Q703.35 418.31, 768 513.66Q809.96 459.62, 864 501.57Q930.7 408.26, 1024 474.96Q1077.37 432.33, 1120 485.7Q1212.74 418.44, 1280 511.19Q1322.18 457.38, 1376 499.56Q1442.15 405.71, 1536 471.86Q1604.61 444.47, 1632 513.07Q1668.16 453.23, 1728 489.39Q1813.99 415.38, 1888 501.37Q1923.31 440.68, 1984 475.99z" fill="white"></path></g><defs><mask id="SvgjsMask1292"><rect width="1920" height="500" fill="#ffffff"></rect></mask></defs></svg>