<svg xmlns="http://www.w3.org/2000/svg" version="1.1" xmlns:xlink="http://www.w3.org/1999/xlink" xmlns:svgjs="http://svgjs.dev/svgjs" width="1440" height="560" preserveAspectRatio="none" viewBox="0 0 1440 560"><g mask="url(&quot;#SvgjsMask1000&quot;)" fill="none"><rect width="1440" height="560" x="0" y="0" fill="#0e2a47"></rect><path d="M1032.31 303.93a21.9 21.9 0 1 0-40.98 15.45z" fill="#037b0b"></path><path d="M1185.12 199.93L1191.66 199.93L1191.66 206.47L1185.12 206.47z" fill="#d3b714"></path><path d="M1414.52 203.78L1441.06 203.78L1441.06 230.32L1414.52 230.32z" fill="#e73635"></path><path d="M55.04 168.34a6.39 6.39 0 1 0 10.52-7.26z" fill="#037b0b"></path><path d="M1056.22 119.92 a50.18 50.18 0 1 0 100.36 0 a50.18 50.18 0 1 0 -100.36 0z" fill="#037b0b"></path><path d="M977.08 250.83 a41.13 41.13 0 1 0 82.26 0 a41.13 41.13 0 1 0 -82.26 0z" stroke="#037b0b"></path><path d="M513.72 231.42a18.29 18.29 0 1 0 29.68 21.38z" stroke="#e73635"></path><path d="M431.02 190.55L444.69 190.55L444.69 225.3L431.02 225.3z" fill="#e73635"></path><path d="M554.73 215.94L605.32 215.94L605.32 244.82L554.73 244.82z" fill="#037b0b"></path><path d="M752.18 153.2L767.4 153.2L767.4 168.42L752.18 168.42z" fill="#d3b714"></path><path d="M411.86 469.38L430.26 469.38L430.26 499.31L411.86 499.31z" stroke="#e73635"></path><path d="M928.75 140.18 a47.71 47.71 0 1 0 95.42 0 a47.71 47.71 0 1 0 -95.42 0z" stroke="#037b0b"></path><path d="M1167.32 333.99 a47.74 47.74 0 1 0 95.48 0 a47.74 47.74 0 1 0 -95.48 0z" fill="#e73635"></path><path d="M532.3 103.14a30.37 30.37 0 1 0-50.6 33.6z" stroke="#037b0b"></path><path d="M131.16 577.37a45.99 45.99 0 1 0 84.7-35.88z" stroke="#e73635"></path><path d="M1168.51 66.77 a46.93 46.93 0 1 0 93.86 0 a46.93 46.93 0 1 0 -93.86 0z" stroke="#037b0b"></path><path d="M1300.19 164.89a41.99 41.99 0 1 0-17.85 82.06z" stroke="#037b0b"></path><path d="M718.51 4.22L761.49 4.22L761.49 47.2L718.51 47.2z" fill="#d3b714"></path><path d="M686.9 255.72L705.42 255.72L705.42 274.24L686.9 274.24z" fill="#e73635"></path><path d="M15.8 135.99a15.89 15.89 0 1 0 23.44 21.46z" stroke="#d3b714"></path><path d="M1009.43 19.37 a45.12 45.12 0 1 0 90.24 0 a45.12 45.12 0 1 0 -90.24 0z" stroke="#d3b714"></path><path d="M22.83 387.69L70.05 387.69L70.05 434.37L22.83 434.37z" fill="#d3b714"></path><path d="M171.83 60.93L199.45 60.93L199.45 88.55L171.83 88.55z" stroke="#037b0b"></path><path d="M1025.91 7.32 a11.48 11.48 0 1 0 22.96 0 a11.48 11.48 0 1 0 -22.96 0z" fill="#037b0b"></path><path d="M1258.3 352.27a20.48 20.48 0 1 0 2.58-40.88z" stroke="#d3b714"></path><path d="M551.83 477.17 a26.08 26.08 0 1 0 52.16 0 a26.08 26.08 0 1 0 -52.16 0z" fill="#e73635"></path><path d="M1367.17 35.64 a52.28 52.28 0 1 0 104.56 0 a52.28 52.28 0 1 0 -104.56 0z" stroke="#037b0b"></path><path d="M347.3 348.32 a9.63 9.63 0 1 0 19.26 0 a9.63 9.63 0 1 0 -19.26 0z" stroke="#d3b714"></path><path d="M1293.54 244.09 a38.6 38.6 0 1 0 77.2 0 a38.6 38.6 0 1 0 -77.2 0z" stroke="#e73635"></path><path d="M1119.22 103.48L1135.02 103.48L1135.02 119.28L1119.22 119.28z" fill="#037b0b"></path><path d="M174.25 241.29L178.45 241.29L178.45 245.49L174.25 245.49z" stroke="#037b0b"></path><path d="M749.69 473.71L778.07 473.71L778.07 529.1L749.69 529.1z" stroke="#037b0b"></path><path d="M637.31 476.13a49.34 49.34 0 1 0-77.41 61.19z" stroke="#d3b714"></path></g><defs><mask id="SvgjsMask1000"><rect width="1440" height="560" fill="#ffffff"></rect></mask></defs></svg>