<svg width="40" height="40" viewBox="0 0 40 40" fill="none" xmlns="http://www.w3.org/2000/svg">
<ellipse cx="19.6188" cy="20" rx="19.5729" ry="20" fill="#FF947A"/>
<path fill-rule="evenodd" clip-rule="evenodd" d="M11.7894 14C11.7894 11.7909 13.542 10 15.704 10H21.5758V14C21.5758 16.2091 23.3285 18 25.4904 18H27.4477V26C27.4477 28.2091 25.6951 30 23.5331 30H15.704C13.542 30 11.7894 28.2091 11.7894 26V14ZM15.704 19C15.1635 19 14.7253 19.4477 14.7253 20C14.7253 20.5523 15.1635 21 15.704 21H17.6613C18.2017 21 18.6399 20.5523 18.6399 20C18.6399 19.4477 18.2017 19 17.6613 19H15.704ZM15.704 23C15.1635 23 14.7253 23.4477 14.7253 24C14.7253 24.5523 15.1635 25 15.704 25H19.6185C20.159 25 20.5972 24.5523 20.5972 24C20.5972 23.4477 20.159 23 19.6185 23H15.704ZM24.2004 12.1988L24.0722 14.1629C24.0328 14.7666 24.523 15.2674 25.1138 15.2272L27.0359 15.0962C27.8749 15.0391 28.2574 13.9989 27.6629 13.3913L25.8689 11.5582C25.2743 10.9507 24.2563 11.3415 24.2004 12.1988Z" fill="white"/>
</svg>
