<svg width="40" height="40" viewBox="0 0 40 40" fill="none" xmlns="http://www.w3.org/2000/svg">
<ellipse cx="20.1244" cy="20" rx="19.5729" ry="20" fill="#FA5A7D"/>
<path fill-rule="evenodd" clip-rule="evenodd" d="M13.2739 11C12.1929 11 11.3166 11.8954 11.3166 13V27C11.3166 28.1046 12.1929 29 13.2739 29H26.9749C28.0559 29 28.9322 28.1046 28.9322 27V13C28.9322 11.8954 28.0559 11 26.9749 11H13.2739ZM16.2098 21C16.2098 20.4477 15.7716 20 15.2311 20C14.6907 20 14.2525 20.4477 14.2525 21V25C14.2525 25.5523 14.6907 26 15.2311 26C15.7716 26 16.2098 25.5523 16.2098 25V21ZM20.1244 17C20.6649 17 21.103 17.4477 21.103 18V25C21.103 25.5523 20.6649 26 20.1244 26C19.5839 26 19.1457 25.5523 19.1457 25V18C19.1457 17.4477 19.5839 17 20.1244 17ZM25.9962 15C25.9962 14.4477 25.5581 14 25.0176 14C24.4771 14 24.039 14.4477 24.039 15V25C24.039 25.5523 24.4771 26 25.0176 26C25.5581 26 25.9962 25.5523 25.9962 25V15Z" fill="white"/>
</svg>
