<svg width="34" height="32" viewBox="0 0 34 32" fill="none" xmlns="http://www.w3.org/2000/svg">
<path d="M4.22046 4H7.00334L7.55992 6.66667M9.78623 17.3333H23.7006L29.2664 6.66667H7.55992M9.78623 17.3333L7.55992 6.66667M9.78623 17.3333L6.5958 20.3905C5.71924 21.2305 6.34005 22.6667 7.5797 22.6667H23.7006M23.7006 22.6667C22.1637 22.6667 20.9178 23.8606 20.9178 25.3333C20.9178 26.8061 22.1637 28 23.7006 28C25.2376 28 26.4835 26.8061 26.4835 25.3333C26.4835 23.8606 25.2376 22.6667 23.7006 22.6667ZM12.5691 25.3333C12.5691 26.8061 11.3232 28 9.78623 28C8.24928 28 7.00334 26.8061 7.00334 25.3333C7.00334 23.8606 8.24928 22.6667 9.78623 22.6667C11.3232 22.6667 12.5691 23.8606 12.5691 25.3333Z" stroke="#737791" stroke-width="2" stroke-linecap="round" stroke-linejoin="round"/>
</svg>
