<svg width="40" height="40" viewBox="0 0 40 40" fill="none" xmlns="http://www.w3.org/2000/svg">
<ellipse cx="20.113" cy="20" rx="19.5729" ry="20" fill="#3CD856"/>
<path fill-rule="evenodd" clip-rule="evenodd" d="M24.6401 13.2653L21.4107 13.7367C20.9174 13.8087 20.5143 14.049 20.2265 14.3811L12.6914 22.0806C11.9271 22.8616 11.927 24.1279 12.6914 24.909L15.4595 27.7374C16.2239 28.5185 17.4631 28.5185 18.2275 27.7374L25.7625 20.038C26.0875 19.7439 26.3227 19.332 26.3932 18.8279L26.8545 15.528C27.0391 14.2081 25.9318 13.0767 24.6401 13.2653ZM22.3795 17.8379C22.7617 18.2284 23.3814 18.2285 23.7635 17.8379C24.1457 17.4474 24.1457 16.8142 23.7635 16.4237C23.3814 16.0332 22.7617 16.0332 22.3795 16.4237C21.9973 16.8142 21.9974 17.4474 22.3795 17.8379Z" fill="white"/>
</svg>
