<?xml version="1.0" encoding="UTF-8"?>
<svg width="60px" height="60px" viewBox="0 0 60 60" version="1.1" xmlns="http://www.w3.org/2000/svg" xmlns:xlink="http://www.w3.org/1999/xlink">
    <title>momo_icon_square_pinkbg</title>
    <g id="5.-Kiểm-tra-giao-dịch" stroke="none" stroke-width="1" fill="none" fill-rule="evenodd">
        <g id="momo_icon_square_pinkbg">
            <path d="M55.9459459,0 L4.05405405,0 C2.56756757,0 1.21621622,0 0,0 L0,55.9459459 C0,57.4324324 0,58.7837838 0,60 L60,60 C60,58.7837838 60,57.4324324 60,55.9459459 L60,0 C58.7837838,0 57.4324324,0 55.9459459,0 Z" id="Path"></path>
            <g id="Group" transform="translate(4.000000, 5.500000)" fill="#A50064" fill-rule="nonzero">
                <path d="M40.9111892,22.0954907 C47.0426493,22.0954907 52,17.1564987 52,11.0477454 C52,4.93899204 47.0426493,0 40.9111892,0 C34.7797291,0 29.8223783,4.93899204 29.8223783,11.0477454 C29.8223783,17.1564987 34.7797291,22.0954907 40.9111892,22.0954907 Z M40.9111892,6.34270557 C43.5203211,6.34270557 45.633718,8.44827586 45.633718,11.0477454 C45.633718,13.6472149 43.5203211,15.7527851 40.9111892,15.7527851 C38.3020572,15.7527851 36.1886603,13.6472149 36.1886603,11.0477454 C36.1886603,8.44827586 38.3020572,6.34270557 40.9111892,6.34270557 Z" id="Shape"></path>
                <path d="M40.9111892,26.8785146 C34.7797291,26.8785146 29.8223783,31.8175066 29.8223783,37.9262599 C29.8223783,44.0350133 34.7797291,48.9740053 40.9111892,48.9740053 C47.0426493,48.9740053 52,44.0350133 52,37.9262599 C52,31.8175066 47.0426493,26.8785146 40.9111892,26.8785146 Z M40.9111892,42.6312997 C38.3020572,42.6312997 36.1886603,40.5257294 36.1886603,37.9262599 C36.1886603,35.3267905 38.3020572,33.2212202 40.9111892,33.2212202 C43.5203211,33.2212202 45.633718,35.3267905 45.633718,37.9262599 C45.633718,40.5257294 43.5203211,42.6312997 40.9111892,42.6312997 Z" id="Shape"></path>
                <path d="M18.3161064,26.8785146 C16.4375314,26.8785146 14.7155043,27.5023873 13.3326643,28.5421751 C11.9498244,27.5023873 10.201706,26.8785146 8.34922228,26.8785146 C3.75715003,26.8785146 0.0260913196,30.595756 0.0260913196,35.1708223 L0.0260913196,49 L6.39237331,49 L6.39237331,35.0928382 C6.39237331,34.0530504 7.22729553,33.2212202 8.27094832,33.2212202 C9.3146011,33.2212202 10.1495233,34.0530504 10.1495233,35.0928382 L10.1495233,48.9740053 L16.5158053,48.9740053 L16.5158053,35.0928382 C16.5158053,34.0530504 17.3507275,33.2212202 18.3943803,33.2212202 C19.4380331,33.2212202 20.2729553,34.0530504 20.2729553,35.0928382 L20.2729553,48.9740053 L26.613146,48.9740053 L26.613146,35.1448276 C26.613146,30.595756 22.9081786,26.8785146 18.3161064,26.8785146 Z" id="Path"></path>
                <path d="M18.3161064,0 C16.4375314,0 14.7155043,0.623872679 13.3326643,1.66366048 C11.9498244,0.623872679 10.201706,0 8.34922228,0 C3.73105871,0 0,3.71724138 0,8.29230769 L0,22.0954907 L6.36628199,22.0954907 L6.36628199,8.21432361 C6.36628199,7.17453581 7.20120421,6.34270557 8.244857,6.34270557 C9.28850978,6.34270557 10.123432,7.17453581 10.123432,8.21432361 L10.123432,22.0954907 L16.489714,22.0954907 L16.489714,8.21432361 C16.489714,7.17453581 17.3246362,6.34270557 18.368289,6.34270557 C19.4119418,6.34270557 20.246864,7.17453581 20.246864,8.21432361 L20.246864,22.0954907 L26.613146,22.0954907 L26.613146,8.29230769 C26.613146,3.71724138 22.9081786,0 18.3161064,0 Z" id="Path"></path>
            </g>
        </g>
    </g>
</svg>